<svg width="16" height="16" viewBox="0 0 16 16" fill="none" xmlns="http://www.w3.org/2000/svg">
<g id="Icon/check-doble">
<path id="Vector (Stroke)" fill-rule="evenodd" clip-rule="evenodd" d="M15.0205 4.31319C15.2158 4.50846 15.2158 4.82504 15.0205 5.0203L8.35388 11.687C8.15862 11.8822 7.84203 11.8822 7.64677 11.687L4.31344 8.35363C4.11818 8.15837 4.11818 7.84179 4.31344 7.64653C4.5087 7.45127 4.82528 7.45127 5.02055 7.64653L8.00033 10.6263L14.3134 4.31319C14.5087 4.11793 14.8253 4.11793 15.0205 4.31319Z" fill="white"/>
<path id="Vector (Stroke)_2" fill-rule="evenodd" clip-rule="evenodd" d="M11.6866 4.31319C11.8818 4.50846 11.8818 4.82504 11.6866 5.0203L8.35323 8.35363C8.15797 8.5489 7.84138 8.5489 7.64612 8.35363C7.45086 8.15837 7.45086 7.84179 7.64612 7.64653L10.9795 4.31319C11.1747 4.11793 11.4913 4.11793 11.6866 4.31319ZM0.979454 7.64653C1.17472 7.45127 1.4913 7.45127 1.68656 7.64653L5.01989 10.9799C5.21516 11.1751 5.21516 11.4917 5.01989 11.687C4.82463 11.8822 4.50805 11.8822 4.31279 11.687L0.979454 8.35363C0.784192 8.15837 0.784192 7.84179 0.979454 7.64653Z" fill="white"/>
</g>
</svg>
